<?xml version="1.0" encoding="UTF-8"?><svg id="Koulutus-2" xmlns="http://www.w3.org/2000/svg" viewBox="0 0 800 800"><defs><style>.cls-1{fill:#292929;}</style></defs><path class="cls-1" d="M691.03,200.41l-7.17-3.18c-34.19-15.14-67.75-23.3-99.75-24.26-33.57-1-64.62,5.96-92.31,20.68-27.69,14.72-50.83,36.58-68.77,64.96-6.84,10.83-12.86,22.53-18.04,35.01-.64-9.31-1.74-17.95-3.35-25.97,.02-.11,.05-.22,.07-.34,8.45-46.94-.94-88.94-26.43-118.27-25.49-29.32-65.77-44.46-113.43-42.64-4.69,.18-8.63,3.6-9.46,8.22-8.44,46.94,.94,88.94,26.43,118.27,23.79,27.36,60.45,42.38,103.96,42.78,1.94,11.14,2.87,23.68,2.87,37.84l-.1,20.81c-29.93-31.35-68.12-57.18-109.63-73.86-53.57-21.52-108.63-26.55-159.24-14.52l-7.69,1.83v328.87l12.14-2.66c36.59-8.01,73.12-7.39,108.57,1.85,28.51,7.43,56.46,20.42,83.08,38.61,45.74,31.26,71.95,67.49,72.21,67.85l8.17,11.43,8.13-11.46c.25-.35,25.4-35.41,70.62-66.08,26.34-17.87,54.28-30.79,83.04-38.41,35.81-9.49,73.1-10.74,110.81-3.72l11.83,2.2V254.88c5.1-14.64,9.14-30.25,12.08-46.75l1.38-7.72Zm-321.73,6.03c-8.71-8.12-18.75-14.74-29.86-19.69-5.05-2.25-10.96,.02-13.21,5.06-2.25,5.04,.02,10.96,5.06,13.21,9.08,4.05,17.28,9.45,24.36,16.05,9.85,9.19,17.11,20.44,22.01,34.51-35.67-1.33-64.45-13.57-83.76-35.79-20.32-23.37-28.25-55.58-23.12-93.52,38.28,.2,69.07,12.54,89.39,35.91,14.44,16.61,22.62,37.69,24.31,62.1-4.35-6.52-9.4-12.43-15.19-17.84Zm267.78,87.27c-16.06,25.41-36.66,44.92-61.25,57.99-24.58,13.07-52.27,19.24-82.32,18.35-23.79-.71-48.66-5.82-74.13-15.2,16.64-20.39,43.45-48.13,81.55-72.69,49.22-31.73,104.31-49.75,163.76-53.6-6.44,24.42-15.68,46.26-27.62,65.15Zm-197.14-24.41c16.06-25.41,36.66-44.92,61.25-57.99,24.58-13.07,52.27-19.24,82.32-18.35,24.36,.73,49.85,6.08,75.97,15.9-61.39,4.6-118.35,23.58-169.38,56.48-33.8,21.79-59.21,45.97-76.91,65.93,6.39-23.14,15.34-43.91,26.75-61.98Zm-115.3,329.04c-28.57-19.62-58.68-33.66-89.49-41.74-20.8-5.45-41.93-8.18-63.21-8.18-14.27,0-28.6,1.23-42.96,3.68V263.74c44.45-8.83,92.49-3.59,139.48,15.29,45.91,18.45,87.43,48.77,116.94,85.4l-1.44,285.46c-12.96-14.13-32.97-33.46-59.31-51.55Zm332.93-45.89c-36.78-5.29-73.12-3.24-108.21,6.12-31.01,8.27-61.06,22.23-89.31,41.49-24.61,16.77-43.43,34.52-56.09,48.03l1.4-277.2c29.97,11.87,59.36,18.31,87.56,19.15,2.11,.06,4.21,.09,6.31,.09,31.15,0,60.05-6.98,86-20.77,27.69-14.72,50.83-36.58,68.76-64.96,1.22-1.94,2.41-3.91,3.58-5.9v253.95Z"/><path class="cls-1" d="M606.58,427.12h-151.44c-5.52,0-10,4.48-10,10s4.48,10,10,10h151.44c5.52,0,10-4.48,10-10s-4.48-10-10-10Z"/><path class="cls-1" d="M264.75,473.17h-84.55c-5.52,0-10,4.48-10,10s4.48,10,10,10h84.55c5.52,0,10-4.48,10-10s-4.48-10-10-10Z"/><path class="cls-1" d="M539.69,473.17h-84.55c-5.52,0-10,4.48-10,10s4.48,10,10,10h84.55c5.52,0,10-4.48,10-10s-4.48-10-10-10Z"/><path class="cls-1" d="M331.63,427.12H180.2c-5.52,0-10,4.48-10,10s4.48,10,10,10h151.44c5.52,0,10-4.48,10-10s-4.48-10-10-10Z"/></svg>