<?xml version="1.0" encoding="utf-8"?>
<!-- Generator: Adobe Illustrator 26.3.1, SVG Export Plug-In . SVG Version: 6.00 Build 0)  -->
<svg version="1.1" xmlns="http://www.w3.org/2000/svg" xmlns:xlink="http://www.w3.org/1999/xlink" x="0px" y="0px"
	 viewBox="0 0 800 800" style="enable-background:new 0 0 800 800;" xml:space="preserve">
<style type="text/css">
	.st0{fill:#506477;}
	.st1{fill:#CDDADF;}
	.st2{fill:#F16C13;}
	.st3{fill:#FFFFFF;}
	.st4{fill:#292929;}
</style>
<g id="Asuntopolitiikka_x5F_harmaa">
</g>
<g id="Elinkeinopolitiikka_x5F_harmaa">
</g>
<g id="Energia_x2C__ilmasto_ja_ympäristö_x5F_harmaa">
</g>
<g id="Sosiaaliturva_x5F_harmaa">
</g>
<g id="Verotus_x5F_harmaa">
</g>
<g id="Terveyspalvelut_x5F_harmaa">
</g>
<g id="Elinkeinopolitiikka_x5F_oranssi">
</g>
<g id="Energia_x2C__ilmasto_ja_ympäristö_x5F_oranssi">
</g>
<g id="Sosiaaliturva_x5F_oranssi">
</g>
<g id="Verotus_x5F_oranssi">
</g>
<g id="Terveyspalvelut_x5F_oranssi">
</g>
<g id="Asuntopolitiikka_x5F_oranssi">
</g>
<g id="Elinkeinopolitiikka_x5F_valkoinen">
</g>
<g id="Energia_x2C__ilmasto_ja_ympäristö_x5F_valkoinen">
</g>
<g id="Sosiaaliturva_x5F_valkoinen">
</g>
<g id="Verotus_x5F_valkoinen">
</g>
<g id="Terveyspalvelut_x5F_valkoinen">
</g>
<g id="Asuntopolitiikka_x5F_valkoinen">
</g>
<g id="Elinkeinopolitiikka_x5F_musta">
</g>
<g id="Energia_x2C__ilmasto_ja_ympäristö_x5F_musta">
</g>
<g id="Sosiaaliturva_x5F_musta">
</g>
<g id="Verotus_x5F_musta">
</g>
<g id="Terveyspalvelut_x5F_musta">
</g>
<g id="Asuntopolitiikka_x5F_musta">
</g>
<g id="Elinkeinopolitiikka_x5F_linja_00000057842744602608985170000001162235266996592301_">
	<g>
		<path class="st4" d="M666.7,352.3L602,341.7c-4.3-15-10.2-29.4-17.7-43l38-53.6c2.8-4,2.4-9.4-1.1-12.9l-53.5-53.5
			c-3.4-3.4-8.9-3.9-12.9-1.1l-53.6,38.1c-13.5-7.5-27.9-13.4-42.9-17.7l-10.6-64.7c-0.8-4.8-5-8.4-9.9-8.4h-75.6
			c-4.9,0-9.1,3.5-9.9,8.4L341.7,198c-15,4.3-29.4,10.2-42.9,17.7l-53.7-38.1c-4-2.8-9.4-2.4-12.9,1.1l-53.5,53.5
			c-3.4,3.4-3.9,8.9-1.1,12.9l38.1,53.7c-7.4,13.5-13.3,27.7-17.6,42.6l-64.8,11c-4.8,0.8-8.3,5-8.3,9.9v75.7c0,4.9,3.5,9,8.3,9.9
			l64.8,11c4.3,14.9,10.3,29.3,17.8,42.9l-38.2,53.3c-2.9,4-2.4,9.4,1.1,12.9l53.5,53.5c3.5,3.5,8.9,3.9,12.9,1.1l53.3-38.2
			c13.6,7.5,28,13.5,42.9,17.8l11,64.9c0.8,4.8,5,8.3,9.9,8.3h75.6c4.9,0,9-3.5,9.9-8.3l11.1-64.9c14.9-4.3,29.3-10.3,42.9-17.8
			l53.3,38.2c4,2.9,9.4,2.4,12.9-1.1l53.5-53.5c3.5-3.5,3.9-8.9,1.1-12.9l-38.2-53.2c7.6-13.7,13.6-28.2,17.9-43.3l64.7-10.6
			c4.8-0.8,8.4-5,8.4-9.9v-75.7C675.1,357.3,671.5,353.1,666.7,352.3z M655.1,429.3l-62.6,10.3c-3.9,0.6-7.1,3.5-8.1,7.4
			c-4.5,17.7-11.5,34.5-20.7,50.1c-2,3.4-1.8,7.7,0.5,10.9l37,51.6l-41.5,41.5l-51.6-37c-3.2-2.3-7.5-2.5-10.9-0.5
			c-15.5,9.2-32.2,16.1-49.7,20.6c-3.8,1-6.7,4.1-7.4,8l-10.7,62.8h-58.7l-10.7-62.9c-0.7-3.9-3.6-7-7.4-8
			c-17.5-4.5-34.2-11.4-49.7-20.6c-3.4-2-7.7-1.8-10.9,0.5l-51.6,37l-41.5-41.5l37-51.6c2.3-3.2,2.5-7.5,0.5-11
			c-9.2-15.5-16.2-32.2-20.6-49.6c-1-3.8-4.1-6.7-8-7.4l-62.8-10.7v-58.8l62.8-10.7c3.9-0.7,7-3.6,8-7.4c4.5-17.4,11.3-34,20.4-49.3
			c2-3.4,1.8-7.7-0.4-10.9l-36.9-52l41.5-41.5l52,36.9c3.2,2.3,7.5,2.5,10.9,0.4c15.4-9.1,32.1-16,49.7-20.5c3.9-1,6.8-4.1,7.4-8.1
			l10.3-62.7h58.7l10.3,62.7c0.6,3.9,3.5,7.1,7.4,8.1c17.6,4.5,34.3,11.4,49.7,20.5c3.4,2,7.7,1.8,10.9-0.4l52-36.9l41.5,41.5
			l-36.8,52c-2.3,3.2-2.5,7.5-0.4,10.9c9.2,15.5,16.1,32.2,20.5,49.7c1,3.9,4.1,6.8,8.1,7.4l62.6,10.3V429.3z"/>
		<path class="st4" d="M457.5,444.4c-5.5-0.4-10.3,3.8-10.6,9.3c-1.2,18.9-17.1,33.7-36.1,33.7h-11c-19.9,0-36.1-16.2-36.1-36.1
			v-17.5h45.4c5,0,9-4,9-9s-4-9-9-9h-45.4v-26.7h45.4c5,0,9-4,9-9s-4-9-9-9h-45.4v-22.4c0-19.9,16.2-36.1,36.1-36.1h11
			c18.7,0,34.5,14.6,36,33.2c0.4,5.5,5.2,9.6,10.8,9.2c5.5-0.4,9.6-5.2,9.2-10.8c-2.3-29-26.9-51.7-56-51.7h-11
			c-31,0-56.1,25.2-56.1,56.1v22.4h-18.6c-5,0-9,4-9,9s4,9,9,9h18.6v26.7h-18.6c-5,0-9,4-9,9s4,9,9,9h18.6v17.5
			c0,31,25.2,56.1,56.1,56.1h11c29.5,0,54.1-23,56-52.4C467.2,449.5,463,444.8,457.5,444.4z"/>
	</g>
</g>
<g id="Energia_x2C__ilmasto_ja_ympäristö_x5F_linja">
</g>
<g id="Sosiaaliturva_x5F_linja">
</g>
<g id="Verotus_x5F_linja">
</g>
<g id="Terveyspalvelut_x5F_linja">
</g>
<g id="Asuntopolitiikka_x5F_linja">
</g>
</svg>
