<?xml version="1.0" encoding="UTF-8"?><svg id="Tyomarkkinat_linja" xmlns="http://www.w3.org/2000/svg" viewBox="0 0 800 800"><defs><style>.cls-1{fill:#292929;}</style></defs><path id="Kasi" class="cls-1" d="M165.06,274.28c18.46,0,37.41-8.62,51.17-21.14l98.89-79.51,104.83-.21,3.75,7.94-75.1,13.87-.42,.09c-17.32,3.98-29.42,19.18-29.42,36.97,0,20.92,17.02,37.94,37.93,37.94,.41,0,58.98-1.18,174.1-3.51,5.08-.1,11.96-2.01,16.36-4.54l116.49-66.82c4.11-2.36,6.83-6.28,7.47-10.77,.63-4.48-.9-9.01-4.19-12.41l-86.03-88.85c-4.28-4.42-11.55-7.5-17.7-7.51l-264.37-.26h-.01c-6.03,0-13.27,2.92-17.57,7.06L110.93,244.92l7.76,7.23c.38,.35,.8,.75,14.56,11.54,9.58,7.41,20.6,10.59,31.81,10.59ZM295.07,97.06c.69-.62,2.83-1.48,3.74-1.51l264.34,.26c.86,.04,2.77,.85,3.38,1.42l81.41,84.08-110.72,63.52c-1.51,.87-5.08,1.86-6.82,1.89-1.71,.03-169.46,3.43-173.77,3.51-9.86-.04-17.86-8.07-17.86-17.94,0-8.35,5.63-15.49,13.71-17.44l81.54-15.06c4.68-.87,8.56-3.68,10.62-7.72,2.07-4.04,2.09-8.83,.05-13.13l-7.45-15.77c-2.72-5.75-9.06-9.76-15.42-9.76h-.03l-113.72,.23-104.6,84.1-.5,.42c-15.53,14.25-40.94,22.48-57.41,9.74-1.59-1.24-3.23-2.53-4.8-3.77L295.07,97.06Z"/><path id="Kasi-2" class="cls-1" d="M681.3,547.84c-.38-.35-.8-.75-14.55-11.53-25.36-19.63-60.87-9.56-82.98,10.55l-98.89,79.51-104.83,.21-3.75-7.94,75.1-13.87,.42-.09c17.32-3.98,29.42-19.18,29.42-36.97,0-20.92-17.02-37.94-37.93-37.94-.41,0-58.98,1.18-174.1,3.51-5.08,.1-11.96,2.01-16.36,4.54l-116.49,66.82c-4.11,2.36-6.83,6.29-7.47,10.77-.63,4.48,.9,9,4.19,12.41l86.03,88.85c4.28,4.41,11.55,7.5,17.7,7.51l264.37,.26h.01c6.03,0,13.27-2.92,17.57-7.06l170.31-162.32-7.77-7.23Zm-176.37,155.1c-.69,.62-2.83,1.48-3.74,1.51l-264.34-.26c-.86-.04-2.77-.85-3.38-1.42l-81.41-84.08,110.72-63.52c1.51-.87,5.08-1.85,6.82-1.89,1.71-.03,169.46-3.43,173.77-3.51,9.86,.04,17.86,8.07,17.86,17.94,0,8.35-5.63,15.49-13.71,17.44l-81.54,15.06c-4.68,.87-8.56,3.68-10.62,7.72-2.07,4.04-2.09,8.83-.05,13.13l7.45,15.76c2.72,5.75,9.06,9.77,15.43,9.77h.03l113.72-.23,104.6-84.1,.49-.42c15.53-14.24,40.94-22.48,57.41-9.74,1.59,1.24,3.23,2.53,4.8,3.77l-154.33,147.08Z"/><path id="pyora" class="cls-1" d="M624.67,421.74c4.35-.71,7.54-4.47,7.54-8.88v-27.99c0-4.41-3.19-8.17-7.54-8.88l-20.69-3.39c-1.23-3.7-2.71-7.3-4.45-10.78l12.2-17.2c2.54-3.58,2.12-8.47-.98-11.57l-19.79-19.79c-3.1-3.1-7.99-3.52-11.57-.98l-17.2,12.2c-3.47-1.73-7.07-3.22-10.77-4.45l-3.41-20.71c-.72-4.35-4.47-7.54-8.88-7.54h-27.99c-4.41,0-8.17,3.19-8.88,7.54l-3.41,20.72c-3.7,1.23-7.29,2.71-10.77,4.44l-17.21-12.2c-3.58-2.54-8.46-2.12-11.57,.98l-19.79,19.78c-3.1,3.1-3.52,7.99-.98,11.57l12.2,17.2c-1.72,3.44-3.19,7-4.41,10.65l-20.79,3.53c-4.33,.73-7.49,4.48-7.49,8.87v27.99c0,4.39,3.16,8.14,7.49,8.87l20.79,3.54c1.23,3.69,2.73,7.28,4.47,10.76l-12.24,17.04c-2.57,3.58-2.17,8.5,.95,11.61l19.79,19.79c3.12,3.12,8.03,3.52,11.61,.95l17.05-12.24c3.48,1.74,7.07,3.23,10.76,4.46l3.53,20.81c.74,4.33,4.48,7.49,8.87,7.49h27.99c4.39,0,8.13-3.16,8.87-7.49l3.55-20.81c3.69-1.24,7.28-2.73,10.76-4.47l17.04,12.24c3.58,2.57,8.5,2.17,11.61-.95l19.79-19.79c3.12-3.12,3.52-8.03,.95-11.61l-12.23-17.04c1.76-3.52,3.26-7.16,4.51-10.89l20.7-3.4Zm-29.2-13.44c-3.53,.58-6.38,3.19-7.26,6.66-1.54,6.05-3.93,11.81-7.1,17.15-1.83,3.08-1.66,6.94,.43,9.85l11.07,15.42-8.98,8.98-15.43-11.08c-2.91-2.09-6.77-2.25-9.85-.43-5.3,3.15-11.02,5.52-16.99,7.06-3.44,.88-6.03,3.71-6.63,7.2l-3.21,18.84h-12.79l-3.2-18.84c-.6-3.5-3.2-6.33-6.64-7.21-5.97-1.53-11.68-3.9-16.98-7.05-3.07-1.83-6.94-1.66-9.85,.42l-15.44,11.08-8.98-8.98,11.08-15.43c2.09-2.91,2.25-6.78,.42-9.86-3.15-5.29-5.53-10.99-7.06-16.97-.88-3.44-3.71-6.04-7.21-6.64l-18.83-3.21v-12.79l18.83-3.2c3.5-.59,6.33-3.2,7.21-6.64,1.52-5.94,3.87-11.61,6.98-16.86,1.81-3.06,1.66-6.9-.4-9.8l-11.05-15.58,9.04-9.04,15.58,11.05c2.9,2.06,6.74,2.21,9.79,.4,5.27-3.12,10.99-5.48,16.99-7.01,3.47-.88,6.08-3.73,6.66-7.26l3.08-18.76h12.7l3.09,18.75c.58,3.53,3.19,6.38,6.66,7.26,6.02,1.53,11.74,3.89,17,7.02,3.06,1.81,6.9,1.66,9.8-.4l15.58-11.05,9.04,9.04-11.04,15.58c-2.05,2.9-2.21,6.73-.4,9.79,3.13,5.29,5.49,11.01,7.01,17.01,.88,3.47,3.73,6.09,7.27,6.67l18.73,3.07v12.71l-18.74,3.08Z"/><path id="euro" class="cls-1" d="M267.99,288.87c-60.65,0-109.99,49.34-109.99,109.99s49.34,109.99,109.99,109.99,109.99-49.34,109.99-109.99-49.34-109.99-109.99-109.99Zm0,201.99c-50.72,0-91.99-41.27-91.99-91.99s41.27-91.99,91.99-91.99,91.99,41.27,91.99,91.99-41.27,91.99-91.99,91.99Z"/><path id="symboli" class="cls-1" d="M297.85,422.69c-3.86-.25-7.19,2.67-7.45,6.52-.64,9.71-8.78,17.32-18.53,17.32h-6.11c-10.24,0-18.58-8.33-18.58-18.58v-7.7h23.73c3.87,0,7-3.13,7-7s-3.13-7-7-7h-23.73v-10.76h23.73c3.87,0,7-3.13,7-7s-3.13-7-7-7h-23.73v-10.42c0-10.24,8.33-18.57,18.58-18.57h6.11c9.63,0,17.76,7.51,18.52,17.09,.3,3.85,3.66,6.73,7.53,6.43,3.85-.3,6.73-3.67,6.43-7.53-1.33-16.81-15.59-29.99-32.47-29.99h-6.11c-17.96,0-32.58,14.61-32.58,32.57v10.42h-8.84c-3.87,0-7,3.13-7,7s3.13,7,7,7h8.84v10.76h-8.84c-3.87,0-7,3.13-7,7s3.13,7,7,7h8.84v7.7c0,17.96,14.61,32.58,32.58,32.58h6.11c17.1,0,31.38-13.35,32.5-30.4,.25-3.86-2.67-7.19-6.52-7.45Z"/></svg>