<svg xmlns="http://www.w3.org/2000/svg" xmlns:xlink="http://www.w3.org/1999/xlink" width="1066" zoomAndPan="magnify" viewBox="0 0 799.5 799.49998" height="1066" preserveAspectRatio="xMidYMid meet" version="1.0"><defs><clipPath id="23b47ece15"><path d="M 110.933594 75.546875 L 672 75.546875 L 672 274.878906 L 110.933594 274.878906 Z M 110.933594 75.546875 " clip-rule="nonzero"/></clipPath><clipPath id="3ed6c95ff4"><path d="M 295.070312 97.058594 C 295.761719 96.4375 297.902344 95.578125 298.8125 95.546875 L 563.152344 95.808594 C 564.011719 95.847656 565.921875 96.65625 566.53125 97.226562 L 647.929688 181.308594 L 537.210938 244.828125 C 535.699219 245.695312 532.132812 246.6875 530.390625 246.71875 C 528.691406 246.746094 360.929688 250.148438 356.621094 250.226562 C 346.761719 250.1875 338.761719 242.15625 338.761719 232.296875 C 338.761719 223.949219 344.390625 216.808594 352.472656 214.855469 L 434.011719 199.796875 C 438.691406 198.925781 442.570312 196.117188 444.632812 192.078125 C 446.691406 188.039062 446.722656 183.246094 444.679688 178.949219 L 437.230469 163.175781 C 434.511719 157.425781 428.171875 153.417969 421.8125 153.417969 L 421.78125 153.417969 L 308.050781 153.648438 L 203.453125 237.746094 L 202.960938 238.175781 C 187.429688 252.417969 162.023438 260.65625 145.550781 247.917969 C 143.960938 246.675781 142.320312 245.386719 140.75 244.148438 L 295.070312 97.058594 M 165.050781 274.277344 C 183.511719 274.277344 202.460938 265.65625 216.222656 253.136719 L 315.113281 173.628906 L 419.941406 173.417969 L 423.691406 181.355469 L 348.589844 195.226562 L 348.171875 195.316406 C 330.851562 199.296875 318.75 214.496094 318.75 232.289062 C 318.75 253.207031 335.769531 270.21875 356.679688 270.21875 C 357.089844 270.21875 415.660156 269.039062 530.78125 266.707031 C 535.859375 266.605469 542.742188 264.695312 547.140625 262.167969 L 663.652344 195.347656 C 667.761719 192.988281 670.492188 189.058594 671.121094 184.578125 C 671.75 180.097656 670.222656 175.566406 666.929688 172.167969 L 580.890625 83.316406 C 576.609375 78.90625 569.339844 75.816406 563.191406 75.808594 L 298.820312 75.546875 L 298.8125 75.546875 C 292.78125 75.546875 285.542969 78.46875 281.242188 82.609375 L 110.933594 244.917969 L 118.691406 252.15625 C 119.070312 252.507812 119.492188 252.90625 133.25 263.6875 C 142.832031 271.097656 153.851562 274.277344 165.0625 274.277344 " clip-rule="nonzero"/></clipPath><clipPath id="c85bfdd1f5"><path d="M 128 525 L 689.253906 525 L 689.253906 724.535156 L 128 724.535156 Z M 128 525 " clip-rule="nonzero"/></clipPath><clipPath id="8ae6913f2f"><path d="M 504.933594 702.9375 C 504.242188 703.558594 502.101562 704.417969 501.191406 704.449219 L 236.851562 704.1875 C 235.992188 704.148438 234.082031 703.339844 233.472656 702.769531 L 152.074219 618.6875 L 262.792969 555.167969 C 264.300781 554.308594 267.871094 553.316406 269.613281 553.277344 C 271.3125 553.25 439.074219 549.847656 443.382812 549.769531 C 453.242188 549.808594 461.242188 557.839844 461.242188 567.699219 C 461.242188 576.046875 455.613281 583.1875 447.53125 585.136719 L 365.992188 600.199219 C 361.3125 601.058594 357.433594 603.878906 355.371094 607.917969 C 353.3125 611.957031 353.28125 616.75 355.324219 621.046875 L 362.773438 636.808594 C 365.492188 642.558594 371.832031 646.578125 378.203125 646.578125 L 378.234375 646.578125 L 491.960938 646.347656 L 596.5625 562.25 L 597.050781 561.816406 C 612.582031 547.578125 637.992188 539.328125 654.460938 552.078125 C 656.050781 553.316406 657.691406 554.609375 659.261719 555.847656 L 504.933594 702.9375 M 681.300781 547.839844 C 680.921875 547.488281 680.503906 547.089844 666.753906 536.308594 C 641.394531 516.6875 605.894531 526.75 583.78125 546.859375 L 484.894531 626.367188 L 380.0625 626.578125 L 376.3125 618.636719 L 451.414062 604.769531 L 451.832031 604.679688 C 469.152344 600.699219 481.253906 585.5 481.253906 567.707031 C 481.253906 546.789062 464.234375 529.777344 443.324219 529.777344 C 442.914062 529.777344 384.34375 530.957031 269.222656 533.289062 C 264.144531 533.386719 257.261719 535.296875 252.863281 537.828125 L 136.351562 604.648438 C 132.242188 607.007812 129.523438 610.9375 128.882812 615.417969 C 128.242188 619.898438 129.78125 624.417969 133.074219 627.828125 L 219.101562 716.679688 C 223.382812 721.089844 230.652344 724.179688 236.800781 724.1875 L 501.171875 724.449219 L 501.183594 724.449219 C 507.210938 724.449219 514.453125 721.527344 518.753906 717.386719 L 689.074219 555.066406 L 681.300781 547.839844 " clip-rule="nonzero"/></clipPath><clipPath id="aa1828c7e5"><path d="M 418 291.203125 L 632.585938 291.203125 L 632.585938 506 L 418 506 Z M 418 291.203125 " clip-rule="nonzero"/></clipPath><clipPath id="c087e13756"><path d="M 595.472656 408.296875 C 591.941406 408.878906 589.09375 411.488281 588.210938 414.949219 C 586.671875 421 584.28125 426.769531 581.113281 432.097656 C 579.28125 435.179688 579.453125 439.039062 581.542969 441.949219 L 592.613281 457.367188 L 583.632812 466.347656 L 568.203125 455.269531 C 565.292969 453.179688 561.433594 453.007812 558.351562 454.839844 C 553.050781 457.988281 547.332031 460.359375 541.363281 461.898438 C 537.921875 462.789062 535.332031 465.609375 534.734375 469.097656 L 531.523438 487.9375 L 518.742188 487.9375 L 515.542969 469.097656 C 514.941406 465.589844 512.34375 462.769531 508.902344 461.886719 C 502.933594 460.359375 497.222656 457.988281 491.921875 454.839844 C 488.851562 453.007812 484.984375 453.179688 482.074219 455.257812 L 466.632812 466.339844 L 457.652344 457.359375 L 468.734375 441.929688 C 470.824219 439.019531 470.984375 435.148438 469.152344 432.066406 C 466.003906 426.777344 463.621094 421.078125 462.09375 415.097656 C 461.210938 411.65625 458.394531 409.058594 454.882812 408.457031 L 436.050781 405.25 L 436.050781 392.46875 L 454.882812 389.269531 C 458.382812 388.667969 461.210938 386.066406 462.09375 382.628906 C 463.613281 376.6875 465.960938 371.019531 469.074219 365.769531 C 470.882812 362.707031 470.734375 358.867188 468.671875 355.96875 L 457.621094 340.386719 L 466.664062 331.347656 L 482.253906 342.40625 C 485.152344 344.46875 488.992188 344.617188 492.050781 342.808594 C 497.324219 339.6875 503.042969 337.328125 509.042969 335.796875 C 512.511719 334.917969 515.121094 332.066406 515.703125 328.539062 L 518.78125 309.777344 L 531.484375 309.777344 L 534.574219 328.527344 C 535.152344 332.058594 537.761719 334.90625 541.234375 335.789062 C 547.253906 337.316406 552.972656 339.679688 558.234375 342.808594 C 561.292969 344.617188 565.132812 344.46875 568.03125 342.40625 L 583.613281 331.359375 L 592.652344 340.398438 L 581.613281 355.976562 C 579.5625 358.878906 579.402344 362.707031 581.210938 365.769531 C 584.34375 371.058594 586.703125 376.777344 588.222656 382.777344 C 589.101562 386.25 591.953125 388.867188 595.492188 389.449219 L 614.222656 392.519531 L 614.222656 405.226562 L 595.472656 408.296875 M 624.671875 421.738281 C 629.023438 421.027344 632.210938 417.269531 632.210938 412.859375 L 632.210938 384.859375 C 632.210938 380.449219 629.023438 376.6875 624.671875 375.976562 L 603.984375 372.589844 C 602.753906 368.886719 601.273438 365.289062 599.53125 361.808594 L 611.734375 344.609375 C 614.273438 341.027344 613.851562 336.136719 610.753906 333.039062 L 590.953125 313.257812 C 587.851562 310.15625 582.960938 309.738281 579.382812 312.277344 L 562.183594 324.476562 C 558.710938 322.75 555.113281 321.257812 551.414062 320.027344 L 548.003906 299.316406 C 547.28125 294.96875 543.53125 291.777344 539.121094 291.777344 L 511.144531 291.777344 C 506.734375 291.777344 502.972656 294.96875 502.261719 299.316406 L 498.863281 320.039062 C 495.164062 321.269531 491.574219 322.75 488.09375 324.476562 L 470.882812 312.277344 C 467.300781 309.738281 462.421875 310.15625 459.3125 313.257812 L 439.523438 333.039062 C 436.414062 336.136719 436.003906 341.027344 438.542969 344.609375 L 450.742188 361.808594 C 449.03125 365.25 447.550781 368.808594 446.332031 372.457031 L 425.550781 375.988281 C 421.222656 376.71875 418.0625 380.46875 418.0625 384.859375 L 418.0625 412.847656 C 418.0625 417.238281 421.222656 420.988281 425.550781 421.71875 L 446.34375 425.257812 C 447.582031 428.949219 449.074219 432.539062 450.8125 436.019531 L 438.574219 453.066406 C 436.003906 456.648438 436.402344 461.566406 439.523438 464.679688 L 459.3125 484.46875 C 462.421875 487.589844 467.34375 487.988281 470.921875 485.417969 L 487.972656 473.179688 C 491.453125 474.917969 495.042969 476.40625 498.734375 477.636719 L 502.261719 498.449219 C 503.003906 502.777344 506.742188 505.9375 511.132812 505.9375 L 539.121094 505.9375 C 543.511719 505.9375 547.253906 502.777344 547.992188 498.449219 L 551.542969 477.636719 C 555.234375 476.398438 558.824219 474.90625 562.300781 473.167969 L 579.34375 485.40625 C 582.921875 487.976562 587.84375 487.578125 590.953125 484.457031 L 610.742188 464.667969 C 613.863281 461.546875 614.261719 456.636719 611.691406 453.058594 L 599.460938 436.019531 C 601.222656 432.5 602.722656 428.859375 603.972656 425.128906 L 624.671875 421.738281 " clip-rule="nonzero"/></clipPath><clipPath id="fd7aabb133"><path d="M 158 288.535156 L 378 288.535156 L 378 509 L 158 509 Z M 158 288.535156 " clip-rule="nonzero"/></clipPath><clipPath id="8e82f83e8a"><path d="M 267.992188 490.859375 C 217.273438 490.859375 176.003906 449.589844 176.003906 398.867188 C 176.003906 348.148438 217.273438 306.867188 267.992188 306.867188 C 318.710938 306.867188 359.984375 348.136719 359.984375 398.859375 C 359.984375 449.578125 318.710938 490.847656 267.992188 490.847656 M 267.992188 288.867188 C 207.34375 288.867188 158.003906 338.207031 158.003906 398.859375 C 158.003906 459.507812 207.34375 508.859375 267.992188 508.859375 C 328.644531 508.859375 377.984375 459.519531 377.984375 398.867188 C 377.984375 338.21875 328.644531 288.867188 267.992188 288.867188 " clip-rule="nonzero"/></clipPath><clipPath id="ced568da70"><path d="M 217.253906 338 L 305 338 L 305 461 L 217.253906 461 Z M 217.253906 338 " clip-rule="nonzero"/></clipPath><clipPath id="a127084ada"><path d="M 297.851562 422.6875 C 293.992188 422.4375 290.664062 425.359375 290.402344 429.207031 C 289.761719 438.917969 281.621094 446.527344 271.871094 446.527344 L 265.761719 446.527344 C 255.523438 446.527344 247.183594 438.199219 247.183594 427.957031 L 247.183594 420.257812 L 270.914062 420.257812 C 274.78125 420.257812 277.914062 417.128906 277.914062 413.257812 C 277.914062 409.386719 274.78125 406.257812 270.914062 406.257812 L 247.191406 406.257812 L 247.191406 395.5 L 270.921875 395.5 C 274.792969 395.5 277.921875 392.367188 277.921875 388.5 C 277.921875 384.628906 274.792969 381.5 270.921875 381.5 L 247.191406 381.5 L 247.191406 371.089844 C 247.191406 360.847656 255.523438 352.507812 265.773438 352.507812 L 271.882812 352.507812 C 281.511719 352.507812 289.644531 360.019531 290.402344 369.597656 C 290.703125 373.457031 294.0625 376.339844 297.933594 376.027344 C 301.78125 375.726562 304.664062 372.359375 304.363281 368.5 C 303.03125 351.679688 288.773438 338.507812 271.894531 338.507812 L 265.78125 338.507812 C 247.824219 338.507812 233.203125 353.117188 233.203125 371.089844 L 233.203125 381.5 L 224.363281 381.5 C 220.492188 381.5 217.363281 384.628906 217.363281 388.5 C 217.363281 392.367188 220.492188 395.5 224.363281 395.5 L 233.203125 395.5 L 233.203125 406.269531 L 224.363281 406.269531 C 220.492188 406.269531 217.363281 409.398438 217.363281 413.269531 C 217.363281 417.136719 220.492188 420.269531 224.363281 420.269531 L 233.203125 420.269531 L 233.203125 427.96875 C 233.203125 445.929688 247.8125 460.539062 265.78125 460.539062 L 271.894531 460.539062 C 288.992188 460.539062 303.273438 447.1875 304.394531 430.136719 C 304.652344 426.277344 301.722656 422.949219 297.871094 422.6875 " clip-rule="nonzero"/></clipPath></defs><g clip-path="url(#23b47ece15)"><g clip-path="url(#3ed6c95ff4)"><path fill="#691763" d="M 110.933594 75.546875 L 671.597656 75.546875 L 671.597656 274.214844 L 110.933594 274.214844 Z M 110.933594 75.546875 " fill-opacity="1" fill-rule="nonzero"/></g></g><g clip-path="url(#c85bfdd1f5)"><g clip-path="url(#8ae6913f2f)"><path fill="#691763" d="M 123.253906 283.867188 L 693.917969 283.867188 L 693.917969 729.203125 L 123.253906 729.203125 Z M 123.253906 283.867188 " fill-opacity="1" fill-rule="nonzero"/></g></g><g clip-path="url(#aa1828c7e5)"><g clip-path="url(#c087e13756)"><path fill="#691763" d="M 123.253906 283.867188 L 693.917969 283.867188 L 693.917969 729.203125 L 123.253906 729.203125 Z M 123.253906 283.867188 " fill-opacity="1" fill-rule="nonzero"/></g></g><g clip-path="url(#fd7aabb133)"><g clip-path="url(#8e82f83e8a)"><path fill="#691763" d="M 123.253906 283.867188 L 693.917969 283.867188 L 693.917969 729.203125 L 123.253906 729.203125 Z M 123.253906 283.867188 " fill-opacity="1" fill-rule="nonzero"/></g></g><g clip-path="url(#ced568da70)"><g clip-path="url(#a127084ada)"><path fill="#691763" d="M 123.253906 283.867188 L 693.917969 283.867188 L 693.917969 729.203125 L 123.253906 729.203125 Z M 123.253906 283.867188 " fill-opacity="1" fill-rule="nonzero"/></g></g></svg>