<?xml version="1.0" encoding="UTF-8"?><svg id="Kunnat_ja_hyvinvointipolitiikka_linja" xmlns="http://www.w3.org/2000/svg" viewBox="0 0 800 800"><defs><style>.cls-1{fill:#292929;}</style></defs><path class="cls-1" d="M639.35,613.08h-23.64l-.05-22.33c0-7.65-6.22-13.87-13.87-13.87h-14.08v-175.83h21.7c3.73,0,7.22-1.46,9.84-4.11,2.61-2.65,4.03-6.16,3.98-9.88l-.65-60.38c-.08-6.05-3.99-11.97-9.51-14.43-1.65-.75-53.05-24-104.03-46.86-30.29-13.58-54.52-24.37-72-32.06-10.41-4.58-18.52-8.11-24.12-10.48-1.68-.71-3.14-1.33-4.45-1.87v-22.19l87.48,.24c6.04,0,12.03-3.83,14.57-9.3l21.48-46.21c1.85-4,1.62-8.5-.61-12.04s-6.21-5.66-10.65-5.7l-118.34-.7h-.08c-3.68,0-7.15,1.43-9.77,4.03-2.63,2.62-4.08,6.11-4.08,9.82v83.32l-202.21,89.97c-5.59,2.47-9.5,8.47-9.5,14.59v60.36c0,7.65,6.22,13.87,13.88,13.87h21.65v175.83h-14.08c-7.65,0-13.87,6.22-13.87,13.85l-.05,22.35h-23.64c-7.65,0-13.87,6.22-13.87,13.88v47.97h506.45v-47.97c0-7.65-6.22-13.88-13.87-13.88ZM408.47,154.23v-9.12l100.45,.6-15.49,33.31-84.97-.23v-24.56Zm61.93,422.65v-175.83h97.31v175.83h-97.31Zm-20,0h-100.81v-175.83h100.81v175.83Zm-253.64-195.83v-51.61l203.12-90.37c20.42,8.28,128.84,56.98,202.74,90.41l.55,51.57H196.76Zm35.52,20h97.31v175.83h-97.31v-175.83Zm400.94,253.88H166.77v-21.84h37.47l.08-36.21h391.36l.08,36.21h37.47v21.84Z"/></svg>