<svg xmlns="http://www.w3.org/2000/svg" xmlns:xlink="http://www.w3.org/1999/xlink" width="1066" zoomAndPan="magnify" viewBox="0 0 799.5 799.49998" height="1066" preserveAspectRatio="xMidYMid meet" version="1.0"><defs><clipPath id="0ff8b0bd9c"><path d="M 0 0 L 799 0 L 799 799 L 0 799 Z M 0 0 " clip-rule="nonzero"/></clipPath><clipPath id="688a0ae511"><path d="M 183.789062 123.710938 L 616.453125 123.710938 L 616.453125 676.378906 L 183.789062 676.378906 Z M 183.789062 123.710938 " clip-rule="nonzero"/></clipPath><clipPath id="1fd45ef17b"><path d="M 324.277344 390.351562 L 324.277344 459.53125 C 324.277344 488.183594 347.585938 511.503906 376.246094 511.503906 L 423.757812 511.503906 C 452.40625 511.503906 475.726562 488.191406 475.726562 459.53125 L 475.726562 390.351562 L 324.277344 390.351562 M 409.996094 676.28125 L 399.996094 676.28125 C 342.246094 676.28125 287.949219 653.792969 247.109375 612.953125 C 206.265625 572.113281 183.789062 517.824219 183.789062 460.074219 C 183.789062 416.402344 194.765625 371.59375 216.425781 326.871094 C 233.707031 291.203125 257.71875 255.621094 287.808594 221.121094 C 315.167969 189.753906 341.976562 165.703125 359.65625 151.050781 C 370.648438 141.941406 379.039062 135.683594 384.136719 132.03125 C 395.289062 124.050781 397.058594 123.710938 399.996094 123.710938 C 402.9375 123.710938 404.699219 124.042969 415.847656 131.992188 C 420.949219 135.632812 429.335938 141.871094 440.328125 150.941406 C 458.007812 165.542969 484.828125 189.523438 512.1875 220.851562 C 542.277344 255.3125 566.296875 290.882812 583.578125 326.582031 C 605.238281 371.332031 616.21875 416.242188 616.21875 460.074219 C 616.21875 551.503906 558.335938 633.433594 472.199219 663.933594 C 466.988281 665.78125 461.277344 663.050781 459.4375 657.84375 C 457.597656 652.632812 460.316406 646.921875 465.527344 645.082031 C 543.699219 617.402344 596.21875 543.042969 596.21875 460.074219 C 596.21875 420.253906 586.386719 379.28125 566.996094 338.273438 C 551.148438 304.753906 528.949219 271.191406 501.015625 238.511719 C 459.058594 189.433594 414.40625 154.863281 400.015625 145.273438 C 385.648438 154.902344 341.007812 189.5625 298.996094 238.773438 C 271.066406 271.492188 248.859375 305.074219 233.015625 338.5625 C 213.617188 379.53125 203.789062 420.414062 203.789062 460.074219 C 203.789062 564.914062 286.4375 650.8125 389.996094 656.03125 L 389.996094 531.503906 L 376.246094 531.503906 C 336.566406 531.503906 304.277344 499.222656 304.277344 459.53125 L 304.277344 370.351562 L 346.96875 370.351562 L 346.96875 326.652344 C 346.96875 321.132812 351.449219 316.652344 356.96875 316.652344 C 362.488281 316.652344 366.96875 321.132812 366.96875 326.652344 L 366.96875 370.363281 L 432.6875 370.363281 L 432.6875 326.652344 C 432.6875 321.132812 437.167969 316.652344 442.6875 316.652344 C 448.207031 316.652344 452.6875 321.132812 452.6875 326.652344 L 452.6875 370.363281 L 495.71875 370.363281 L 495.71875 459.542969 C 495.71875 499.222656 463.4375 531.511719 423.746094 531.511719 L 409.996094 531.511719 L 409.996094 676.28125 " clip-rule="nonzero"/></clipPath></defs><g clip-path="url(#0ff8b0bd9c)"><path fill="#ffffff" d="M 0 0 L 799.5 0 L 799.5 807 L 0 807 Z M 0 0 " fill-opacity="1" fill-rule="nonzero"/><path fill="#ffffff" d="M 0 0 L 799.5 0 L 799.5 799.5 L 0 799.5 Z M 0 0 " fill-opacity="1" fill-rule="nonzero"/></g><g clip-path="url(#688a0ae511)"><g clip-path="url(#1fd45ef17b)"><path fill="#14ad31" d="M 183.789062 123.710938 L 616.453125 123.710938 L 616.453125 676.378906 L 183.789062 676.378906 Z M 183.789062 123.710938 " fill-opacity="1" fill-rule="nonzero"/></g></g></svg>