<svg xmlns="http://www.w3.org/2000/svg" xmlns:xlink="http://www.w3.org/1999/xlink" width="1066" zoomAndPan="magnify" viewBox="0 0 799.5 799.49998" height="1066" preserveAspectRatio="xMidYMid meet" version="1.0"><defs><clipPath id="adef1ca213"><path d="M 124.589844 124.582031 L 675.257812 124.582031 L 675.257812 675.25 L 124.589844 675.25 Z M 124.589844 124.582031 " clip-rule="nonzero"/></clipPath><clipPath id="8ca32d84e1"><path d="M 655.074219 429.324219 L 592.425781 439.625 C 588.503906 440.265625 585.34375 443.175781 584.355469 447.015625 C 579.84375 464.683594 572.863281 481.546875 563.605469 497.136719 C 561.574219 500.554688 561.765625 504.84375 564.074219 508.074219 L 601.09375 559.636719 L 559.625 601.105469 L 508.042969 564.074219 C 504.816406 561.753906 500.523438 561.566406 497.105469 563.605469 C 481.625 572.804688 464.90625 579.753906 447.425781 584.253906 C 443.605469 585.234375 440.726562 588.375 440.066406 592.265625 L 429.355469 655.09375 L 370.613281 655.09375 L 359.933594 592.246094 C 359.273438 588.355469 356.386719 585.214844 352.554688 584.234375 C 335.09375 579.765625 318.386719 572.824219 302.90625 563.613281 C 299.484375 561.585938 295.195312 561.765625 291.964844 564.085938 L 240.363281 601.113281 L 198.886719 559.644531 L 235.925781 508.035156 C 238.246094 504.804688 238.425781 500.496094 236.386719 497.085938 C 227.164062 481.636719 220.226562 464.933594 215.734375 447.457031 C 214.753906 443.636719 211.613281 440.746094 207.726562 440.085938 L 144.925781 429.375 L 144.925781 370.613281 L 207.734375 359.957031 C 211.625 359.296875 214.765625 356.40625 215.746094 352.574219 C 220.195312 335.207031 227.074219 318.605469 236.175781 303.253906 C 238.183594 299.855469 238.015625 295.59375 235.726562 292.375 L 198.855469 240.394531 L 240.394531 198.875 L 292.375 235.734375 C 295.59375 238.023438 299.863281 238.195312 303.253906 236.183594 C 318.675781 227.046875 335.394531 220.144531 352.945312 215.683594 C 356.796875 214.707031 359.703125 211.535156 360.34375 207.613281 L 370.664062 144.914062 L 429.316406 144.914062 L 439.636719 207.59375 C 440.273438 211.515625 443.183594 214.683594 447.035156 215.664062 C 464.625 220.144531 481.355469 227.054688 496.746094 236.183594 C 500.144531 238.207031 504.414062 238.023438 507.636719 235.746094 L 559.605469 198.886719 L 601.144531 240.425781 L 564.304688 292.386719 C 562.023438 295.605469 561.84375 299.863281 563.855469 303.265625 C 573.015625 318.734375 579.914062 335.476562 584.363281 353.003906 C 585.34375 356.863281 588.515625 359.765625 592.445312 360.414062 L 655.085938 370.683594 L 655.074219 429.324219 M 666.695312 352.296875 L 602.023438 341.695312 C 597.726562 326.726562 591.785156 312.324219 584.304688 298.734375 L 622.34375 245.09375 C 625.164062 241.113281 624.703125 235.683594 621.253906 232.234375 L 567.773438 178.765625 C 564.324219 175.316406 558.894531 174.855469 554.914062 177.683594 L 501.265625 215.734375 C 487.726562 208.273438 473.324219 202.335938 458.324219 198.015625 L 447.675781 133.296875 C 446.875 128.464844 442.703125 124.914062 437.804688 124.914062 L 362.175781 124.914062 C 357.273438 124.914062 353.105469 128.464844 352.304688 133.296875 L 341.664062 198.023438 C 326.683594 202.335938 312.296875 208.265625 298.746094 215.734375 L 245.085938 177.675781 C 241.105469 174.855469 235.675781 175.316406 232.234375 178.753906 L 178.746094 232.214844 C 175.296875 235.664062 174.835938 241.09375 177.65625 245.074219 L 215.726562 298.734375 C 208.304688 312.207031 202.394531 326.476562 198.09375 341.304688 L 133.253906 352.304688 C 128.445312 353.125 124.925781 357.285156 124.925781 362.164062 L 124.925781 437.816406 C 124.925781 442.695312 128.445312 446.855469 133.246094 447.675781 L 198.09375 458.726562 C 202.425781 473.65625 208.40625 488.035156 215.925781 501.605469 L 177.695312 554.863281 C 174.835938 558.84375 175.285156 564.304688 178.746094 567.765625 L 232.226562 621.246094 C 235.683594 624.707031 241.144531 625.15625 245.125 622.296875 L 298.394531 584.066406 C 311.984375 591.574219 326.363281 597.546875 341.285156 601.863281 L 352.304688 666.753906 C 353.125 671.566406 357.285156 675.074219 362.164062 675.074219 L 437.796875 675.074219 C 442.675781 675.074219 446.835938 671.566406 447.65625 666.753906 L 458.703125 601.886719 C 473.636719 597.546875 488.015625 591.566406 501.605469 584.066406 L 554.855469 622.296875 C 558.835938 625.15625 564.296875 624.707031 567.753906 621.246094 L 621.234375 567.765625 C 624.695312 564.304688 625.144531 558.835938 622.285156 554.863281 L 584.066406 501.625 C 591.625 487.925781 597.636719 473.40625 601.996094 458.316406 L 666.675781 447.683594 C 671.503906 446.886719 675.054688 442.714844 675.054688 437.816406 L 675.054688 362.164062 C 675.054688 357.265625 671.503906 353.085938 666.675781 352.296875 " clip-rule="nonzero"/></clipPath><clipPath id="cf8777329b"><path d="M 316 292 L 467 292 L 467 507.914062 L 316 507.914062 Z M 316 292 " clip-rule="nonzero"/></clipPath><clipPath id="68eb79e3ec"><path d="M 457.503906 444.40625 C 451.984375 444.035156 447.234375 448.214844 446.863281 453.726562 C 445.613281 472.625 429.785156 487.425781 410.816406 487.425781 L 399.792969 487.425781 C 379.875 487.425781 363.664062 471.214844 363.664062 451.296875 L 363.664062 433.785156 L 409.09375 433.785156 C 414.066406 433.785156 418.09375 429.753906 418.09375 424.785156 C 418.09375 419.816406 414.066406 415.785156 409.09375 415.785156 L 363.664062 415.785156 L 363.664062 389.113281 L 409.09375 389.113281 C 414.066406 389.113281 418.09375 385.085938 418.09375 380.113281 C 418.09375 375.144531 414.066406 371.113281 409.09375 371.113281 L 363.664062 371.113281 L 363.664062 348.707031 C 363.664062 328.785156 379.875 312.574219 399.792969 312.574219 L 410.816406 312.574219 C 429.546875 312.574219 445.363281 327.175781 446.835938 345.816406 C 447.265625 351.324219 452.074219 355.425781 457.59375 354.996094 C 463.105469 354.566406 467.214844 349.746094 466.773438 344.234375 C 464.484375 315.265625 439.914062 292.566406 410.816406 292.566406 L 399.792969 292.566406 C 368.84375 292.566406 343.664062 317.746094 343.664062 348.695312 L 343.664062 371.113281 L 325.09375 371.113281 C 320.125 371.113281 316.09375 375.144531 316.09375 380.113281 C 316.09375 385.085938 320.125 389.113281 325.09375 389.113281 L 343.664062 389.113281 L 343.664062 415.785156 L 325.09375 415.785156 C 320.125 415.785156 316.09375 419.816406 316.09375 424.785156 C 316.09375 429.753906 320.125 433.785156 325.09375 433.785156 L 343.664062 433.785156 L 343.664062 451.296875 C 343.664062 482.246094 368.84375 507.425781 399.792969 507.425781 L 410.816406 507.425781 C 440.273438 507.425781 464.886719 484.414062 466.824219 455.046875 C 467.183594 449.535156 463.015625 444.773438 457.503906 444.40625 " clip-rule="nonzero"/></clipPath></defs><g clip-path="url(#adef1ca213)"><g clip-path="url(#8ca32d84e1)"><path fill="#4e0ed6" d="M 119.925781 119.914062 L 679.925781 119.914062 L 679.925781 679.914062 L 119.925781 679.914062 Z M 119.925781 119.914062 " fill-opacity="1" fill-rule="nonzero"/></g></g><g clip-path="url(#cf8777329b)"><g clip-path="url(#68eb79e3ec)"><path fill="#4e0ed6" d="M 119.925781 119.914062 L 679.925781 119.914062 L 679.925781 679.914062 L 119.925781 679.914062 Z M 119.925781 119.914062 " fill-opacity="1" fill-rule="nonzero"/></g></g></svg>