<?xml version="1.0" encoding="utf-8"?>
<!-- Generator: Adobe Illustrator 26.3.1, SVG Export Plug-In . SVG Version: 6.00 Build 0)  -->
<svg version="1.1" xmlns="http://www.w3.org/2000/svg" xmlns:xlink="http://www.w3.org/1999/xlink" x="0px" y="0px"
	 viewBox="0 0 800 800" style="enable-background:new 0 0 800 800;" xml:space="preserve">
<style type="text/css">
	.st0{fill:#506477;}
	.st1{fill:#CDDADF;}
	.st2{fill:#F16C13;}
	.st3{fill:#FFFFFF;}
	.st4{fill:#292929;}
</style>
<g id="Elinkeinopolitiikka_x5F_harmaa">
</g>
<g id="Energia_x5F_ilmasto_x5F_ja_x5F_ymparisto_x5F_harmaa">
</g>
<g id="Sosiaaliturva_x5F_harmaa">
</g>
<g id="Verotus_x5F_harmaa">
</g>
<g id="Terveyspalvelut_x5F_harmaa">
</g>
<g id="Asuntopolitiikka_x5F_harmaa">
</g>
<g id="Elinkeinopolitiikka_x5F_oranssi">
</g>
<g id="Energia_x5F_ilmasto_x5F_ja_x5F_ymparisto_x5F_oranssi">
</g>
<g id="Sosiaaliturva_x5F_oranssi">
</g>
<g id="Verotus_x5F_oranssi">
</g>
<g id="Terveyspalvelut_x5F_oranssi">
</g>
<g id="Asuntopolitiikka_x5F_oranssi">
</g>
<g id="Elinkeinopolitiikka_x5F_valkoinen">
</g>
<g id="Energia_x5F_ilmasto_x5F_ja_x5F_ymparisto_x5F_valkoinen">
</g>
<g id="Sosiaaliturva_x5F_valkoinen">
</g>
<g id="Verotus_x5F_valkoinen">
</g>
<g id="Terveyspalvelut_x5F_valkoinen">
</g>
<g id="Asuntopolitiikka_x5F_valkoinen">
</g>
<g id="Elinkeinopolitiikka_x5F_musta">
</g>
<g id="Energia_x5F_ilmasto_x5F_ja_x5F_ymparisto_x5F_musta">
</g>
<g id="Sosiaaliturva_x5F_musta">
</g>
<g id="Verotus_x5F_musta">
</g>
<g id="Terveyspalvelut_x5F_musta">
</g>
<g id="Asuntopolitiikka_x5F_musta">
</g>
<g id="Elinkeinopolitiikka_x5F_linja_00000057842744602608985170000001162235266996592301_">
</g>
<g id="Energia_x5F_ilmasto_x5F_ja_x5F_ymparisto_x5F_linja">
	<path class="st4" d="M410,676.3h-10c-57.8,0-112-22.5-152.9-63.3c-40.8-40.8-63.3-95.1-63.3-152.9c0-43.7,11-88.5,32.6-133.2
		c17.3-35.7,41.3-71.2,71.4-105.8c27.4-31.4,54.2-55.4,71.8-70.1c11-9.1,19.4-15.4,24.5-19c11.2-8,12.9-8.3,15.9-8.3
		c2.9,0,4.7,0.3,15.9,8.3c5.1,3.6,13.5,9.9,24.5,19c17.7,14.6,44.5,38.6,71.9,69.9c30.1,34.5,54.1,70,71.4,105.7
		c21.7,44.7,32.6,89.7,32.6,133.5c0,91.4-57.9,173.4-144,203.9c-5.2,1.8-10.9-0.9-12.8-6.1s0.9-10.9,6.1-12.8
		c78.2-27.7,130.7-102,130.7-185c0-39.8-9.8-80.8-29.2-121.8c-15.8-33.5-38-67.1-66-99.8c-42-49.1-86.6-83.6-101-93.2
		c-14.4,9.6-59,44.3-101,93.5c-27.9,32.7-50.1,66.3-66,99.8c-19.4,41-29.2,81.8-29.2,121.5c0,104.8,82.7,190.7,186.2,196V531.5
		h-13.8c-39.7,0-72-32.3-72-72v-89.2H347v-43.7c0-5.5,4.5-10,10-10s10,4.5,10,10v43.7h65.7v-43.7c0-5.5,4.5-10,10-10s10,4.5,10,10
		v43.7h43v89.2c0,39.7-32.3,72-72,72H410V676.3z M324.3,390.4v69.2c0,28.7,23.3,52,52,52h47.5c28.7,0,52-23.3,52-52v-69.2H324.3z"/>
</g>
<g id="Sosiaaliturva_x5F_linja">
</g>
<g id="Verotus_x5F_linja">
</g>
<g id="Terveyspalvelut_x5F_linja">
</g>
<g id="Asuntopolitiikka_x5F_linja">
</g>
</svg>
