<svg xmlns="http://www.w3.org/2000/svg" xmlns:xlink="http://www.w3.org/1999/xlink" width="1066" zoomAndPan="magnify" viewBox="0 0 799.5 799.49998" height="1066" preserveAspectRatio="xMidYMid meet" version="1.0"><defs><clipPath id="40f6bfec20"><path d="M 146.773438 125.074219 L 653.441406 125.074219 L 653.441406 675 L 146.773438 675 Z M 146.773438 125.074219 " clip-rule="nonzero"/></clipPath><clipPath id="33c673eb48"><path d="M 633.222656 654.921875 L 166.773438 654.921875 L 166.773438 633.082031 L 204.242188 633.082031 L 204.324219 596.875 L 595.683594 596.875 L 595.761719 633.082031 L 633.234375 633.082031 L 633.222656 654.921875 M 232.285156 401.042969 L 329.59375 401.042969 L 329.59375 576.875 L 232.285156 576.875 L 232.285156 401.042969 M 196.761719 381.042969 L 196.761719 329.433594 L 399.882812 239.0625 C 420.304688 247.34375 528.722656 296.042969 602.625 329.464844 L 603.171875 381.035156 L 196.761719 381.042969 M 450.402344 576.875 L 349.59375 576.875 L 349.59375 401.042969 L 450.402344 401.042969 L 450.402344 576.875 M 470.402344 401.042969 L 567.714844 401.042969 L 567.714844 576.875 L 470.402344 576.875 L 470.402344 401.042969 M 408.472656 154.234375 L 408.472656 145.113281 L 508.921875 145.714844 L 493.433594 179.023438 L 408.464844 178.792969 L 408.472656 154.234375 M 639.351562 613.082031 L 615.714844 613.082031 L 615.664062 590.753906 C 615.664062 583.105469 609.445312 576.882812 601.792969 576.882812 L 587.714844 576.882812 L 587.714844 401.042969 L 609.414062 401.042969 C 613.144531 401.042969 616.632812 399.582031 619.253906 396.933594 C 621.875 394.285156 623.285156 390.773438 623.234375 387.054688 L 622.582031 326.671875 C 622.503906 320.625 618.59375 314.703125 613.074219 312.242188 C 611.421875 311.492188 560.023438 288.242188 509.042969 265.382812 C 478.753906 251.804688 454.523438 241.015625 437.042969 233.324219 C 426.632812 228.742188 418.523438 225.214844 412.921875 222.84375 C 411.242188 222.132812 409.785156 221.515625 408.472656 220.972656 L 408.472656 198.785156 L 495.953125 199.023438 C 501.992188 199.023438 507.984375 195.195312 510.523438 189.722656 L 532.003906 143.515625 C 533.851562 139.503906 533.625 135.003906 531.394531 131.472656 C 529.164062 127.945312 525.183594 125.8125 520.742188 125.773438 L 402.402344 125.074219 L 402.324219 125.074219 C 398.644531 125.074219 395.171875 126.503906 392.554688 129.105469 C 389.921875 131.722656 388.464844 135.214844 388.464844 138.921875 L 388.464844 222.242188 L 186.261719 312.214844 C 180.671875 314.683594 176.761719 320.683594 176.761719 326.804688 L 176.761719 387.164062 C 176.761719 394.8125 182.992188 401.035156 190.644531 401.035156 L 212.285156 401.035156 L 212.285156 576.875 L 198.203125 576.875 C 190.554688 576.875 184.332031 583.09375 184.332031 590.722656 L 184.285156 613.082031 L 160.644531 613.082031 C 152.992188 613.082031 146.773438 619.304688 146.773438 626.953125 L 146.773438 674.921875 L 653.222656 674.921875 L 653.222656 626.953125 C 653.222656 619.304688 647.003906 613.074219 639.351562 613.074219 " clip-rule="nonzero"/></clipPath></defs><g clip-path="url(#40f6bfec20)"><g clip-path="url(#33c673eb48)"><path fill="#cd1616" d="M 146.773438 125.074219 L 653.441406 125.074219 L 653.441406 675.074219 L 146.773438 675.074219 Z M 146.773438 125.074219 " fill-opacity="1" fill-rule="nonzero"/></g></g></svg>